<?xml version="1.0" encoding="iso-8859-1"?>
<!-- Generator: Adobe Illustrator 19.0.0, SVG Export Plug-In . SVG Version: 6.00 Build 0)  -->
<svg version="1.1" id="Capa_1" xmlns="http://www.w3.org/2000/svg" xmlns:xlink="http://www.w3.org/1999/xlink" x="0px" y="0px"
	 viewBox="0 0 490 490" style="enable-background:new 0 0 490 490;" xml:space="preserve" preserveAspectRatio="xMinYMin meet" width="25px" height="25px">
<g id="bold_copy_12_">
	<path d="M67.375,291.55l-33.687,71.739l84.219,9.157l4.594,85.505l78.094-36.643L252.656,490l45.937-68.692l71.969,35.111
		l6.125-85.49l84.219-1.531l-30.625-70.223L490,245.766l-64.313-51.894l41.344-71.739l-87.281-7.626l-7.656-83.958l-73.5,35.112
		L248.063,0l-47.469,67.161l-76.563-39.69l-4.594,87.021l-85.75,4.578l32.156,82.427L0,241.187L67.375,291.55z M94.371,190.365
		l-16.767-42.982l43.457-2.327l27.501-1.47l1.455-27.501l2.082-39.567l34.392,17.824l23.704,12.281l15.404-21.805l23.52-33.274
		l25.204,32.754l15.113,19.631l22.356-10.673l33.795-16.139l3.66,40.134l2.328,25.495l25.511,2.236l39.43,3.445l-17.364,30.135
		l-13.077,22.678l20.381,16.446l36.275,29.262l-32.861,29.4l-16.507,14.761l8.851,20.304l12.296,28.19l-38.373,0.689l-27.991,0.505
		l-2.006,27.93l-2.879,40.272l-31.238-15.236l-24.025-11.714l-14.853,22.218l-22.035,32.953l-26.092-34.438l-14.976-19.753
		l-22.448,10.535l-36.949,17.334l-2.159-40.103l-1.393-25.985l-25.878-2.818l-41.573-4.502l15.45-32.922l10.612-22.601
		l-19.998-14.945l-30.916-23.122l26.858-16.185l22.096-13.322L94.371,190.365z"/>
	<polygon points="261.078,275.916 267.234,149.205 222.766,149.205 229.197,275.916 	"/>
	<path d="M245.138,340.795c15.098,0,24.898-10.918,24.898-25.449c-0.291-14.838-10.076-25.449-24.898-25.449
		s-25.174,10.612-25.174,25.449C219.964,329.877,230.024,340.795,245.138,340.795z"/>
</g>
<g>
</g>
<g>
</g>
<g>
</g>
<g>
</g>
<g>
</g>
<g>
</g>
<g>
</g>
<g>
</g>
<g>
</g>
<g>
</g>
<g>
</g>
<g>
</g>
<g>
</g>
<g>
</g>
<g>
</g>
</svg>
